# xmcd
#
# Track frame offsets:
#	150
#	14878
#	34407
#	52695
#	68965
#	90518
#	102058
#	122218
#	135790
#
# Disc length: 2130 seconds
#
# Revision: 1
# Processed by: cddbd v1.5.2PL0 Copyright (c) Steve Scherf et al.
# Submitted via: audiograbber 1.83.01
#
DISCID=70085009
DTITLE=J.d. Souther - Tenderness
DYEAR=2015
DGENRE=Rock
TTITLE0=Come What May
TTITLE1=Something In The Dark
TTITLE2=This House
TTITLE3=Let's Take A Walk
TTITLE4=Dance Real Slow
TTITLE5=Show Me What You Mean
TTITLE6=Horses In Blue
TTITLE7=Need Somebody
TTITLE8=Downtown (Before The War)
EXTD=
EXTT0=
EXTT1=
EXTT2=
EXTT3=
EXTT4=
EXTT5=
EXTT6=
EXTT7=
EXTT8=
PLAYORDER=
